<?xml version="1.0" standalone="no"?>
<!DOCTYPE svg PUBLIC "-//W3C//DTD SVG 20010904//EN"
 "http://www.w3.org/TR/2001/REC-SVG-20010904/DTD/svg10.dtd">
<svg version="1.0" xmlns="http://www.w3.org/2000/svg"
 width="700.000000pt" height="700.000000pt" viewBox="0 0 700.000000 700.000000"
 preserveAspectRatio="xMidYMid meet">
<metadata>
Created by potrace 1.14, written by Peter Selinger 2001-2017
</metadata>
<g transform="translate(0.000000,700.000000) scale(0.100000,-0.100000)"
fill="#000000" stroke="none">
<path d="M3131 6984 c-806 -88 -1534 -436 -2106 -1009 -666 -665 -1025 -1533
-1025 -2475 0 -810 265 -1567 769 -2193 235 -291 481 -516 791 -722 463 -306
914 -476 1495 -562 152 -22 705 -26 855 -5 823 113 1504 445 2065 1007 666
665 1025 1532 1025 2475 0 943 -359 1809 -1025 2475 -574 575 -1312 927 -2113
1009 -186 19 -555 19 -731 0z m2031 -2598 c-97 -100 -640 -648 -1207 -1219
l-1030 -1039 -632 639 -633 638 93 93 92 93 540 -546 540 -546 1115 1125 1115
1125 92 -91 92 -92 -177 -180z"/>
</g>
</svg>
